<svg width="34" height="34" viewBox="0 0 34 34" fill="none" xmlns="http://www.w3.org/2000/svg">
<g id="mingcute:ai-line">
<g id="Group">
<path id="Vector" d="M12.9016 7.71816C13.7488 5.239 17.1743 5.16391 18.1787 7.49291L18.2637 7.71958L19.4069 11.0629C19.6689 11.8297 20.0923 12.5313 20.6486 13.1205C21.2048 13.7097 21.8809 14.1728 22.6313 14.4785L22.9387 14.5932L26.282 15.7351C28.7612 16.5822 28.8363 20.0077 26.5087 21.0122L26.282 21.0972L22.9387 22.2404C22.1717 22.5022 21.4698 22.9256 20.8803 23.4818C20.2908 24.038 19.8275 24.7142 19.5217 25.4647L19.4069 25.7707L18.2651 29.1155C17.4179 31.5947 13.9924 31.6697 12.9894 29.3422L12.9016 29.1155L11.7598 25.7722C11.4979 25.0052 11.0746 24.3032 10.5184 23.7138C9.96218 23.1243 9.28598 22.661 8.53544 22.3552L8.22944 22.2404L4.88611 21.0986C2.40553 20.2514 2.33044 16.8259 4.65944 15.8229L4.88611 15.7351L8.22944 14.5932C8.99619 14.3312 9.69783 13.9079 10.287 13.3516C10.8763 12.7954 11.3393 12.1193 11.645 11.3689L11.7598 11.0629L12.9016 7.71816ZM15.5834 8.63333L14.4415 11.9767C14.0426 13.1458 13.3936 14.214 12.5397 15.1068C11.6858 15.9996 10.6476 16.6955 9.49736 17.1461L9.14319 17.275L5.79986 18.4168L9.14319 19.5587C10.3124 19.9576 11.3805 20.6066 12.2733 21.4605C13.1661 22.3144 13.862 23.3526 14.3126 24.5028L14.4415 24.857L15.5834 28.2003L16.7252 24.857C17.1241 23.6878 17.7731 22.6196 18.627 21.7269C19.4809 20.8341 20.5191 20.1382 21.6694 19.6876L22.0235 19.5601L25.3669 18.4168L22.0235 17.275C20.8543 16.876 19.7862 16.227 18.8934 15.3732C18.0006 14.5193 17.3047 13.4811 16.8541 12.3308L16.7266 11.9767L15.5834 8.63333ZM26.9167 2.8335C27.1817 2.8335 27.4414 2.90784 27.6663 3.04808C27.8912 3.18832 28.0722 3.38883 28.1889 3.62683L28.2569 3.79258L28.7527 5.24608L30.2076 5.74191C30.4732 5.83215 30.706 5.9992 30.8766 6.2219C31.0472 6.4446 31.1478 6.71292 31.1657 6.99286C31.1836 7.2728 31.118 7.55175 30.9772 7.79436C30.8364 8.03697 30.6267 8.23233 30.3748 8.35566L30.2076 8.42366L28.7541 8.9195L28.2583 10.3744C28.1679 10.6399 28.0007 10.8727 27.7779 11.0431C27.5551 11.2135 27.2868 11.3139 27.0069 11.3317C26.7269 11.3494 26.448 11.2837 26.2055 11.1428C25.963 11.0019 25.7677 10.7921 25.6445 10.5402L25.5765 10.3744L25.0807 8.92091L23.6258 8.42508C23.3602 8.33484 23.1273 8.16779 22.9568 7.94509C22.7862 7.72239 22.6856 7.45407 22.6677 7.17413C22.6498 6.8942 22.7154 6.61524 22.8562 6.37263C22.997 6.13002 23.2067 5.93467 23.4586 5.81133L23.6258 5.74333L25.0793 5.2475L25.5751 3.79258C25.6706 3.51268 25.8514 3.2697 26.092 3.0977C26.3326 2.92571 26.6209 2.83332 26.9167 2.8335Z" fill="url(#paint0_linear_83_1480)"/>
</g>
</g>
<defs>
<linearGradient id="paint0_linear_83_1480" x1="17.068" y1="2.8335" x2="17.068" y2="31.0331" gradientUnits="userSpaceOnUse">
<stop stop-color="#4FE2E2"/>
<stop offset="0.495" stop-color="#EFFF8F"/>
<stop offset="1" stop-color="#BC55EC"/>
</linearGradient>
</defs>
</svg>
